<?xml version="1.0" standalone="no"?>
<!DOCTYPE svg PUBLIC "-//W3C//DTD SVG 20010904//EN"
 "http://www.w3.org/TR/2001/REC-SVG-20010904/DTD/svg10.dtd">
<svg version="1.0" xmlns="http://www.w3.org/2000/svg"
 width="400.000000pt" height="400.000000pt" viewBox="0 0 400.000000 400.000000"
 preserveAspectRatio="xMidYMid meet">
<metadata>
Created by potrace 1.14, written by Peter Selinger 2001-2017
</metadata>
<g transform="translate(0.000000,400.000000) scale(0.100000,-0.100000)"
fill="#000000" stroke="none">
<path d="M1875 3886 c-250 -69 -428 -172 -1095 -636 -58 -40 -143 -95 -190
-123 -259 -152 -326 -233 -361 -437 -16 -95 -15 -341 2 -535 15 -180 17 -410
5 -675 -20 -444 43 -529 609 -822 157 -81 289 -160 460 -273 432 -288 602
-348 815 -287 209 60 367 144 783 416 172 112 348 224 392 248 44 25 131 74
194 109 231 130 297 232 321 499 10 104 5 229 -21 587 -10 124 -10 200 -1 330
24 331 14 490 -37 598 -67 144 -180 228 -554 416 -238 120 -313 163 -520 303
-251 168 -426 264 -532 291 -82 21 -175 18 -270 -9z m273 -115 c108 -38 195
-91 429 -264 124 -92 246 -172 345 -226 369 -204 507 -295 589 -392 123 -146
155 -284 108 -464 -19 -75 -19 -82 -5 -130 64 -203 63 -621 -2 -1055 -17 -114
-17 -115 -45 -118 -17 -2 -45 -20 -70 -46 -68 -68 -129 -104 -340 -202 -246
-115 -261 -124 -532 -301 -300 -197 -440 -263 -598 -283 -196 -24 -468 85
-840 337 -103 71 -257 175 -342 233 -85 58 -154 110 -155 116 0 6 -35 24 -78
39 -86 30 -151 77 -188 137 -41 65 -54 151 -54 373 0 110 -9 317 -20 460 -31
410 -23 609 30 774 47 148 104 197 413 358 301 157 566 315 887 528 102 68
205 130 230 139 70 24 144 20 238 -13z"/>
<path d="M1853 2805 c-252 -46 -405 -160 -439 -328 -49 -236 173 -472 607
-647 178 -73 239 -121 239 -193 0 -40 -51 -88 -125 -118 -83 -33 -178 -31
-375 10 -168 35 -220 35 -297 1 -49 -22 -66 -50 -65 -107 1 -77 71 -158 187
-213 70 -33 199 -50 388 -51 134 0 131 -1 312 58 77 25 171 51 210 58 l70 11
7 45 c4 24 17 56 29 72 70 95 89 217 48 307 -64 140 -218 266 -543 442 -249
135 -306 185 -306 270 0 82 59 106 290 117 110 6 196 16 257 31 l93 22 -19 36
c-28 53 -98 117 -156 142 -113 49 -266 62 -412 35z"/>
<path d="M3516 2321 c-33 -36 -46 -108 -45 -245 l1 -131 39 190 c21 105 38
193 38 198 1 13 -16 7 -33 -12z"/>
<path d="M2545 1260 c-3 -5 -1 -10 4 -10 6 0 11 5 11 10 0 6 -2 10 -4 10 -3 0
-8 -4 -11 -10z"/>
<path d="M3265 1041 c-55 -22 -154 -64 -219 -96 -115 -54 -316 -163 -316 -171
0 -2 24 7 53 20 110 50 602 279 606 282 14 13 -37 -2 -124 -35z"/>
<path d="M767 963 c33 -17 51 -13 38 6 -3 6 -21 11 -38 10 l-32 0 32 -16z"/>
</g>
</svg>
