<svg id="color" enable-background="new 0 0 24 24" height="512" viewBox="0 0 24 24" width="512" xmlns="http://www.w3.org/2000/svg"><path d="m21.25 3h-18.5c-1.517 0-2.75 1.233-2.75 2.75v12.5c0 1.517 1.233 2.75 2.75 2.75h18.5c1.517 0 2.75-1.233 2.75-2.75v-12.5c0-1.517-1.233-2.75-2.75-2.75z" fill="#2196f3"/><path d="m12 3h-9.25c-1.517 0-2.75 1.233-2.75 2.75v12.5c0 1.517 1.233 2.75 2.75 2.75h9.25z" fill="#1d83d4"/><g fill="#fff"><path d="m12.5 16h-1c-1.379 0-2.5-1.122-2.5-2.5v-3c0-1.378 1.121-2.5 2.5-2.5h1c1.379 0 2.5 1.122 2.5 2.5v3c0 1.378-1.121 2.5-2.5 2.5zm-1-6c-.275 0-.5.224-.5.5v3c0 .276.225.5.5.5h1c.275 0 .5-.224.5-.5v-3c0-.276-.225-.5-.5-.5z"/><path d="m14 16c-.256 0-.512-.098-.707-.293l-1.5-1.5c-.391-.391-.391-1.023 0-1.414s1.023-.391 1.414 0l1.5 1.5c.391.391.391 1.023 0 1.414-.195.195-.451.293-.707.293z"/><path d="m4.5 11c1.379 0 2.5 1.122 2.5 2.5s-1.121 2.5-2.5 2.5h-1.5c-.553 0-1-.448-1-1s.447-1 1-1h1.5c.275 0 .5-.224.5-.5s-.225-.5-.5-.5c-1.379 0-2.5-1.122-2.5-2.5s1.121-2.5 2.5-2.5h1.5c.553 0 1 .448 1 1s-.447 1-1 1h-1.5c-.275 0-.5.224-.5.5s.225.5.5.5z"/><path d="m21 16h-3c-.553 0-1-.448-1-1v-6c0-.552.447-1 1-1s1 .448 1 1v5h2c.553 0 1 .448 1 1s-.447 1-1 1z"/></g><path d="m11 12h-2v1.5c0 1.378 1.121 2.5 2.5 2.5h1c.328 0 .642-.064.929-.179-.048-.033-.093-.071-.136-.114l-1.5-1.5c-.063-.063-.116-.133-.159-.207h-.134c-.275 0-.5-.224-.5-.5zm4 0h-2v.634c.074.043.144.096.207.159l1.5 1.5c.043.043.081.088.114.136.115-.287.179-.601.179-.929z" fill="#dedede"/><path d="m12.5 12.5c-.256 0-.512.098-.707.293-.327.327-.38.825-.159 1.207.043.074.096.144.159.207l1.5 1.5c.043.043.088.081.136.114.171.119.371.179.571.179.256 0 .512-.098.707-.293.348-.348.386-.888.114-1.278-.033-.048-.071-.093-.114-.136l-1.5-1.5c-.063-.063-.133-.116-.207-.159-.154-.089-.327-.134-.5-.134z" fill="#dedede"/><path d="m6.499 12h-3.998c.456.607 1.183 1 1.999 1 .275 0 .5.224.5.5s-.225.5-.5.5h-1.5c-.553 0-1 .448-1 1s.447 1 1 1h1.5c1.379 0 2.5-1.122 2.5-2.5 0-.562-.187-1.082-.501-1.5z" fill="#dedede"/><path d="m19 12h-2v3c0 .552.447 1 1 1h3c.553 0 1-.448 1-1s-.447-1-1-1h-2z" fill="#dedede"/></svg>