<?xml version="1.0" ?><svg data-name="Layer 1" id="Layer_1" viewBox="0 0 512 512" xmlns="http://www.w3.org/2000/svg" xmlns:xlink="http://www.w3.org/1999/xlink"><defs><style>.cls-1{fill:url(#linear-gradient);}.cls-2,.cls-3{opacity:0.2;}.cls-2{fill:url(#linear-gradient-2);}.cls-3{fill:#231f20;}.cls-4{fill:#fff;}</style><linearGradient gradientUnits="userSpaceOnUse" id="linear-gradient" x1="791.43" x2="127.32" y1="29.11" y2="311.08"><stop offset="0" stop-color="#6d6e71"/><stop offset="1" stop-color="#414042"/></linearGradient><linearGradient gradientUnits="userSpaceOnUse" id="linear-gradient-2" x1="365.65" x2="570.64" y1="256.45" y2="256.45"><stop offset="0.31" stop-color="#fff" stop-opacity="0.2"/><stop offset="1" stop-color="#fff"/></linearGradient></defs><path class="cls-1" d="M512,52.87V460a52.82,52.82,0,0,1-52.87,52.86H52.87A52.86,52.86,0,0,1,0,460V52.87A52.85,52.85,0,0,1,52.87,0H459.13A52.87,52.87,0,0,1,512,52.87Z"/><path class="cls-2" d="M459.13,0H437.49a52.87,52.87,0,0,1,52.87,52.87V460a52.82,52.82,0,0,1-52.87,52.86h21.64A52.82,52.82,0,0,0,512,460V52.87A52.87,52.87,0,0,0,459.13,0Z"/><path class="cls-3" d="M511.18,469.34a52.88,52.88,0,0,1-52.05,43.55H52.87A52.86,52.86,0,0,1,0,460V52.87A52.88,52.88,0,0,1,44.22.71C28.11,117.11,22.15,460.84,511.18,469.34Z"/><path class="cls-4" d="M397.08,216.3v-1.5a7.65,7.65,0,0,0-3.76-6.41c-.07-.06-.1-.12-.17-.18-4.44-4.09-10.76-7.09-15.78-10.4q-58.81-38.7-117.61-77.42a6.47,6.47,0,0,0-3.71-1.09H256a6.47,6.47,0,0,0-3.71,1.09q-58.8,38.71-117.61,77.42c-5,3.31-11.34,6.31-15.78,10.4-.07.06-.1.12-.17.18a7.65,7.65,0,0,0-3.76,6.41v1.5c-.38,3.21,0,6.69,0,10.29V297.2a7,7,0,0,0,.12,1.22,6.55,6.55,0,0,0,2.79,4.58l0,0,.11.1a6.51,6.51,0,0,0,.64.51l133.63,88A6.47,6.47,0,0,0,256,392.7h.1a6.47,6.47,0,0,0,3.71-1.09l133.63-88a6.51,6.51,0,0,0,.64-.51l.11-.09a6.57,6.57,0,0,0,2.82-4.61,7,7,0,0,0,.12-1.22V226.59C397.08,223,397.46,219.51,397.08,216.3Zm-14.89,67.1L340.57,256l41.62-27.39Zm-55.14-36.31-63.6-41.86v-64.6L376.11,214.8ZM256,293.39c-3.91-2.76-8.46-5.09-12.27-7.6L198.48,256,256,218.13,313.52,256l-45.25,29.79C264.46,288.3,259.91,290.63,256,293.39Zm-7.45-88.16L185,247.09,135.89,214.8l112.66-74.17ZM171.43,256l-41.62,27.4V228.61ZM185,264.91l63.44,41.76c0,2.52.16,5.17.16,7.89v56.81L135.89,297.2Zm78.5,49.65c0-2.72.21-5.37.16-7.89l63.44-41.76,49.06,32.29L263.45,371.37Z"/></svg>