<?xml version="1.0" encoding="UTF-8" standalone="no"?>
<!-- Created with Inkscape (http://www.inkscape.org/) -->

<svg
   xmlns:dc="http://purl.org/dc/elements/1.1/"
   xmlns:cc="http://creativecommons.org/ns#"
   xmlns:rdf="http://www.w3.org/1999/02/22-rdf-syntax-ns#"
   xmlns:svg="http://www.w3.org/2000/svg"
   xmlns="http://www.w3.org/2000/svg"
   xmlns:sodipodi="http://sodipodi.sourceforge.net/DTD/sodipodi-0.dtd"
   xmlns:inkscape="http://www.inkscape.org/namespaces/inkscape"
   width="126.90115mm"
   height="135.1974mm"
   viewBox="0 0 449.64976 479.04591"
   id="svg2"
   version="1.1"
   inkscape:version="0.91 r13725"
   sodipodi:docname="logo.svg">
  <defs
     id="defs4" />
  <sodipodi:namedview
     id="base"
     pagecolor="#ffffff"
     bordercolor="#666666"
     borderopacity="1.0"
     inkscape:pageopacity="0.0"
     inkscape:pageshadow="2"
     inkscape:zoom="0.35"
     inkscape:cx="-338.74656"
     inkscape:cy="256.66581"
     inkscape:document-units="px"
     inkscape:current-layer="layer1"
     showgrid="false"
     inkscape:window-width="1920"
     inkscape:window-height="1012"
     inkscape:window-x="-8"
     inkscape:window-y="-8"
     inkscape:window-maximized="1"
     fit-margin-top="0"
     fit-margin-left="0"
     fit-margin-right="0"
     fit-margin-bottom="0" />
  <metadata
     id="metadata7">
    <rdf:RDF>
      <cc:Work
         rdf:about="">
        <dc:format>image/svg+xml</dc:format>
        <dc:type
           rdf:resource="http://purl.org/dc/dcmitype/StillImage" />
        <dc:title></dc:title>
      </cc:Work>
    </rdf:RDF>
  </metadata>
  <g
     inkscape:label="Layer 1"
     inkscape:groupmode="layer"
     id="layer1"
     transform="translate(-143.74656,-309.98211)">
    <g
       id="g4175"
       transform="translate(548.57143,100)">
      <path
         id="path4142"
         d="m -197.6498,212.82977 c -31.25,8.625 -53.5,21.5 -136.875,79.5 -7.25,5 -17.875,11.875 -23.75,15.375 -32.375,19 -40.75,29.125 -45.125,54.625 -2,11.875 -1.875,42.625 0.25,66.875 1.875,22.5 2.125,51.25 0.625,84.375 -2.5,55.5 5.375,66.125 76.125,102.75 19.625,10.125 36.125,20 57.5,34.125 54,36 75.25,43.5 101.875,35.875 26.125,-7.5 45.875,-18 97.875,-52 21.5,-14 43.5,-28 49,-31 5.5,-3.125 16.375,-9.25 24.25,-13.625 28.875,-16.25 37.125,-29 40.125,-62.375 1.25,-13 0.625,-28.625 -2.625,-73.375 -1.25,-15.5 -1.25,-25 -0.125,-41.25 3,-41.375 1.75,-61.25 -4.625,-74.75 -8.375,-18 -22.5,-28.5 -69.25,-52 -29.75,-15 -39.125,-20.375 -65,-37.875 -31.375,-21 -53.25,-33 -66.5,-36.375 -10.25,-2.625 -21.875,-2.25 -33.75,1.125 z m 34.125,14.375 c 13.5,4.75 24.375,11.375 53.625,33 15.5,11.5 30.75,21.5 43.125,28.25 46.125,25.5 63.375,36.875 73.625,49 15.375,18.25 19.375,35.5 13.5,58 -2.375,9.375 -2.375,10.25 -0.625,16.25 8,25.375 7.875,77.625 -0.25,131.875 -2.125,14.25 -2.125,14.375 -5.625,14.75 -2.125,0.25 -5.625,2.5 -8.75,5.75 -8.5,8.5 -16.125,13 -42.5,25.25 -30.75,14.375 -32.625,15.5 -66.5,37.625 -37.5,24.625 -55,32.875 -74.75,35.375 -24.5,3 -58.5,-10.625 -105,-42.125 -12.875,-8.875 -32.125,-21.875 -42.75,-29.125 -10.625,-7.25 -19.25,-13.75 -19.375,-14.5 0,-0.75 -4.375,-3 -9.75,-4.875 -10.75,-3.75 -18.875,-9.625 -23.5,-17.125 -5.125,-8.125 -6.75,-18.875 -6.75,-46.625 0,-13.75 -1.125,-39.625 -2.5,-57.5 -3.875,-51.25 -2.875,-76.125 3.75,-96.75 5.875,-18.5 13,-24.625 51.625,-44.75 37.625,-19.625 70.75,-39.375 110.875,-66 12.75,-8.5 25.625,-16.25 28.75,-17.375 8.75,-3 18,-2.5 29.75,1.625 z"
         inkscape:connector-curvature="0"
         style="fill:#000000;stroke:none" />
      <path
         id="path4144"
         d="m -200.3998,347.95477 c -31.5,5.75 -50.625,20 -54.875,41 -6.125,29.5 21.625,59 75.875,80.875 22.25,9.125 29.875,15.125 29.875,24.125 0,5 -6.375,11 -15.625,14.75 -10.375,4.125 -22.25,3.875 -46.875,-1.25 -21,-4.375 -27.5,-4.375 -37.125,-0.125 -6.125,2.75 -8.25,6.25 -8.125,13.375 0.125,9.625 8.875,19.75 23.375,26.625 8.75,4.125 24.875,6.25 48.5,6.375 16.75,0 16.375,0.125 39,-7.25 9.625,-3.125 21.375,-6.375 26.25,-7.25 l 8.75,-1.375 0.875,-5.625 c 0.5,-3 2.125,-7 3.625,-9 8.75,-11.875 11.125,-27.125 6,-38.375 -8,-17.5 -27.25,-33.25 -67.875,-55.25 -31.125,-16.875 -38.25,-23.125 -38.25,-33.75 0,-10.25 7.375,-13.25 36.25,-14.625 13.75,-0.75 24.5,-2 32.125,-3.875 l 11.625,-2.75 -2.375,-4.5 c -3.5,-6.625 -12.25,-14.625 -19.5,-17.75 -14.125,-6.125 -33.25,-7.75 -51.5,-4.375 z"
         inkscape:connector-curvature="0"
         style="fill:#000000;stroke:none" />
      <path
         id="path4146"
         d="m 7.4752,408.45477 c -4.125,4.5 -5.75,13.5 -5.625,30.625 l 0.125,16.375 4.875,-23.75 c 2.625,-13.125 4.75,-24.125 4.75,-24.75 0.125,-1.625 -2,-0.875 -4.125,1.5 z"
         inkscape:connector-curvature="0"
         style="fill:#000000;stroke:none" />
      <path
         id="path4148"
         d="m -113.8998,541.07977 c -0.375,0.625 -0.125,1.25 0.5,1.25 0.75,0 1.375,-0.625 1.375,-1.25 0,-0.75 -0.25,-1.25 -0.5,-1.25 -0.375,0 -1,0.5 -1.375,1.25 z"
         inkscape:connector-curvature="0"
         style="fill:#000000;stroke:none" />
      <path
         id="path4150"
         d="m -23.8998,568.45477 c -6.875,2.75 -19.25,8 -27.375,12 -14.375,6.75 -39.5,20.375 -39.5,21.375 0,0.25 3,-0.875 6.625,-2.5 13.75,-6.25 75.25,-34.875 75.75,-35.25 1.75,-1.625 -4.625,0.25 -15.5,4.375 z"
         inkscape:connector-curvature="0"
         style="fill:#000000;stroke:none" />
      <path
         id="path4152"
         d="m -336.1498,578.20477 c 4.125,2.125 6.375,1.625 4.75,-0.75 -0.375,-0.75 -2.625,-1.375 -4.75,-1.25 l -4,0 4,2 z"
         inkscape:connector-curvature="0"
         style="fill:#000000;stroke:none" />
      <path
         inkscape:connector-curvature="0"
         id="path4173"
         d="m -216.83803,655.33072 c -23.51463,-8.51234 -35.61427,-15.4394 -84.7445,-48.51629 -31.62384,-21.29071 -37.34899,-26.18583 -32.85714,-28.09351 5.15231,-2.18817 5.1378,-2.26317 -0.2746,-1.42009 -8.34575,1.30003 -37.65901,-14.03285 -43.3068,-22.65248 -5.2576,-8.02409 -9.44793,-66.25563 -10.46506,-145.429 -0.56268,-43.79963 3.64132,-63.51301 16.0257,-75.14753 3.49412,-3.28255 25.50635,-16.46076 48.91607,-29.28491 23.40972,-12.82415 62.56645,-36.03738 87.01495,-51.58495 46.31534,-29.4534 51.38167,-31.24688 71.83399,-25.42917 5.48962,1.56153 29.90971,16.1763 54.26685,32.47726 24.357141,16.30095 56.891799,36.98154 72.299227,45.95686 50.9292,29.66786 59.825143,42.25245 59.118543,83.63167 -0.235714,13.80228 0.459457,42.68276 1.544743,64.17884 1.242286,24.60536 0.730286,50.00735 -1.382086,68.57141 -3.267571,28.71595 -3.631228,29.73252 -13.8964856,38.84435 -5.7976,5.14617 -25.6430284,17.04634 -44.1009424,26.4448 -18.457915,9.39845 -49.159143,26.86917 -68.224939,38.8238 -42.83422,26.85791 -56.03674,32.79191 -76.46259,34.36685 -12.14377,0.93632 -20.71681,-0.457 -35.30493,-5.73791 z m 197.361201,-85.24403 c 6.809172,-3.0968 11.847029,-6.16383 11.1952004,-6.81563 -2.8649714,-2.865 -74.1872004,30.00357 -77.8040004,35.85566 -0.988057,1.59874 10.809115,-3.01434 26.216,-10.25134 15.406858,-7.237 33.583629,-15.69189 40.3928,-18.78869 z M -141.71969,546.16938 c 14.02415,-4.03466 26.8018,-6.5302 28.39478,-5.54569 1.59299,0.98451 2.89634,-0.55489 2.89634,-3.42089 0,-2.86602 2.65408,-10.16288 5.89794,-16.21525 16.883459,-31.50084 1.6894,-54.65962 -58.22541,-88.74709 -35.09935,-19.96915 -41.95825,-25.8656 -41.95825,-36.07061 0,-9.76421 3.31878,-11.06637 36.3066,-14.24532 29.91835,-2.88314 40.83626,-5.15836 40.83626,-8.50999 0,-1.2805 -3.32558,-6.28042 -7.39018,-11.11092 -16.44506,-19.54385 -58.46698,-22.28912 -91.18125,-5.95682 -20.62178,10.29524 -27.63183,19.23171 -29.38314,37.4579 -2.63334,27.40576 15.85221,47.21005 68.95906,73.87848 17.32901,8.70204 32.86413,18.07188 34.5225,20.82188 4.38729,7.27526 -0.98033,14.2144 -14.7668,19.0902 -10.1116,3.57612 -15.28042,3.53469 -41.12526,-0.32971 -32.0983,-4.79941 -43.12577,-3.25365 -48.50593,6.79925 -6.4576,12.06615 8.627,29.84252 31.05399,36.59538 17.40821,5.24168 57.27745,3.10174 83.66875,-4.4908 z M 10.653571,416.3622 c 1.947486,-12.2752 1.811715,-12.63042 -2.9997139,-7.84798 -3.7158571,3.69348 -5.2334,10.4475 -5.7776,25.71429 l -0.7380857,20.70512 3.7378,-12.85714 c 2.0558,-7.07143 4.6557143,-18.64286 5.7775996,-25.71429 z"
         style="fill:#ffff00;fill-opacity:1;stroke:none;stroke-width:1px;stroke-linecap:butt;stroke-linejoin:miter;stroke-opacity:1" />
    </g>
  </g>
</svg>
